<?xml version="1.0" encoding="UTF-8"?> <svg xmlns="http://www.w3.org/2000/svg" width="48" height="48" viewBox="0 0 48 48" fill="none"> <path fill-rule="evenodd" clip-rule="evenodd" d="M13 15H9.50078C8.50078 15 8.30078 15.4704 8.30078 15.9904C8.30078 16.9168 9.48638 21.5152 13.8256 27.5952C16.7168 31.7488 20.792 34 24.4992 34C26.7248 34 27 33.4992 27 32.64V29.5008C27 28.5008 27.2112 28.3008 27.9152 28.3008C28.4352 28.3008 29.3232 28.56 31.4016 30.5616C33.7744 32.936 34.1648 34 35.4992 34H39C40 34 40.5008 33.4992 40.2112 32.512C39.896 31.5296 38.7632 30.1024 37.2592 28.4112C36.4432 27.448 35.2208 26.4096 34.8496 25.8896C34.3296 25.2224 34.4784 24.9264 34.8496 24.3328C34.8496 24.3328 39.1136 18.3264 39.5584 16.2864C39.7824 15.5456 39.5584 15 38.4992 15H35C34.1104 15 33.6992 15.4704 33.4768 15.9904C33.4768 15.9904 31.6976 20.328 29.176 23.1456C28.36 23.9616 27.9888 24.2224 27.544 24.2224C27.3216 24.2224 27 23.9616 27 23.2208V16.2864C27 15.3968 26.7424 15 26 15H20.4992C19.944 15 19.6096 15.4128 19.6096 15.8048C19.6096 16.648 20.8704 16.8432 21 19.216V24.3696C21 25.5008 20.7968 25.7056 20.3504 25.7056C19.1648 25.7056 16.2784 21.3472 14.5664 16.3616C14.2304 15.392 13.8944 15 13 15Z" fill="white"></path> </svg> 