<svg width="404" height="404" viewBox="0 0 404 404" fill="none" xmlns="http://www.w3.org/2000/svg">
<path d="M160 219.477C157.432 219.477 155.244 218.778 153.438 217.381C151.631 215.971 150.25 213.932 149.295 211.261C148.341 208.579 147.864 205.341 147.864 201.545C147.864 197.773 148.341 194.551 149.295 191.881C150.261 189.199 151.648 187.153 153.455 185.744C155.273 184.324 157.455 183.614 160 183.614C162.545 183.614 164.722 184.324 166.528 185.744C168.347 187.153 169.733 189.199 170.688 191.881C171.653 194.551 172.136 197.773 172.136 201.545C172.136 205.341 171.659 208.579 170.705 211.261C169.75 213.932 168.369 215.971 166.563 217.381C164.756 218.778 162.568 219.477 160 219.477ZM160 215.727C162.545 215.727 164.523 214.5 165.932 212.045C167.341 209.591 168.045 206.091 168.045 201.545C168.045 198.523 167.722 195.949 167.074 193.824C166.438 191.699 165.517 190.079 164.313 188.966C163.119 187.852 161.682 187.295 160 187.295C157.477 187.295 155.506 188.54 154.085 191.028C152.665 193.506 151.955 197.011 151.955 201.545C151.955 204.568 152.273 207.136 152.909 209.25C153.545 211.364 154.46 212.971 155.653 214.074C156.858 215.176 158.307 215.727 160 215.727Z" fill="white"/>
<path d="M198.768 192.818V196.227H185.2V192.818H198.768ZM189.155 186.545H193.177V211.5C193.177 212.636 193.342 213.489 193.672 214.057C194.013 214.614 194.444 214.989 194.967 215.182C195.501 215.364 196.064 215.454 196.655 215.454C197.098 215.454 197.461 215.432 197.745 215.386C198.03 215.329 198.257 215.284 198.427 215.25L199.245 218.864C198.973 218.966 198.592 219.068 198.103 219.17C197.615 219.284 196.995 219.341 196.245 219.341C195.109 219.341 193.995 219.096 192.905 218.608C191.825 218.119 190.927 217.375 190.211 216.375C189.507 215.375 189.155 214.114 189.155 212.591V186.545Z" fill="white"/>
<path d="M212.774 219.545C210.411 219.545 208.337 218.983 206.553 217.858C204.78 216.733 203.394 215.159 202.394 213.136C201.405 211.114 200.911 208.75 200.911 206.045C200.911 203.318 201.405 200.937 202.394 198.903C203.394 196.869 204.78 195.29 206.553 194.165C208.337 193.04 210.411 192.477 212.774 192.477C215.138 192.477 217.206 193.04 218.979 194.165C220.763 195.29 222.149 196.869 223.138 198.903C224.138 200.937 224.638 203.318 224.638 206.045C224.638 208.75 224.138 211.114 223.138 213.136C222.149 215.159 220.763 216.733 218.979 217.858C217.206 218.983 215.138 219.545 212.774 219.545ZM212.774 215.932C214.57 215.932 216.047 215.471 217.206 214.551C218.365 213.631 219.223 212.42 219.78 210.92C220.337 209.42 220.615 207.795 220.615 206.045C220.615 204.295 220.337 202.665 219.78 201.153C219.223 199.642 218.365 198.42 217.206 197.489C216.047 196.557 214.57 196.091 212.774 196.091C210.979 196.091 209.502 196.557 208.343 197.489C207.184 198.42 206.326 199.642 205.769 201.153C205.212 202.665 204.934 204.295 204.934 206.045C204.934 207.795 205.212 209.42 205.769 210.92C206.326 212.42 207.184 213.631 208.343 214.551C209.502 215.471 210.979 215.932 212.774 215.932Z" fill="white"/>
<path d="M251.683 184.091V219H247.456V188.523H247.251L238.729 194.182V189.886L247.456 184.091H251.683Z" fill="white"/>
<circle cx="202" cy="202" r="201" stroke="white" stroke-width="2"/>
</svg>
