<svg width="19" height="19" viewBox="0 0 19 19" fill="none" xmlns="http://www.w3.org/2000/svg">
<g clip-path="url(#clip0_949_186)">
<path fill-rule="evenodd" clip-rule="evenodd" d="M9.49935 0.98942C14.1995 0.98942 18.0098 4.79966 18.0098 9.49984C18.0098 14.2 14.1995 18.0103 9.49935 18.0103C4.79918 18.0103 0.988931 14.2 0.988931 9.49984C0.988931 4.79967 4.79917 0.989422 9.49935 0.98942ZM10.9088 11.8988L12.8879 9.91968C13.1198 9.68781 13.1198 9.31187 12.8879 9.07999L10.9088 7.10083C10.6769 6.86895 10.301 6.86895 10.0691 7.10083C9.83721 7.3327 9.83721 7.70864 10.0691 7.94051L11.0347 8.90609L6.5306 8.90609C6.20268 8.90609 5.93685 9.17192 5.93685 9.49984C5.93685 9.82776 6.20268 10.0936 6.5306 10.0936L11.0347 10.0936L10.0691 11.0592C9.83721 11.291 9.83721 11.667 10.0691 11.8988C10.301 12.1307 10.6769 12.1307 10.9088 11.8988Z" fill="black"/>
</g>
<defs>
<clipPath id="clip0_949_186">
<rect width="19" height="19" fill="white"/>
</clipPath>
</defs>
</svg>
