<svg width="19" height="19" viewBox="0 0 19 19" fill="none" xmlns="http://www.w3.org/2000/svg">
<path fill-rule="evenodd" clip-rule="evenodd" d="M5.14574 5.9375H3.76064C3.36481 5.9375 3.28564 6.1237 3.28564 6.32953C3.28564 6.69623 3.75494 8.51643 5.47254 10.9231C6.61698 12.5672 8.23008 13.4583 9.69751 13.4583C10.5785 13.4583 10.6874 13.2601 10.6874 12.92V11.6774C10.6874 11.2816 10.771 11.2024 11.0497 11.2024C11.2555 11.2024 11.607 11.305 12.4297 12.0973C13.3689 13.0372 13.5235 13.4583 14.0517 13.4583H15.4374C15.8332 13.4583 16.0315 13.2601 15.9168 12.8693C15.7921 12.4805 15.3437 11.9155 14.7483 11.2461C14.4253 10.8648 13.9415 10.4538 13.7945 10.248C13.5887 9.98387 13.6476 9.8667 13.7945 9.63173C13.7945 9.63173 15.4824 7.2542 15.6584 6.4467C15.7471 6.15347 15.6584 5.9375 15.2392 5.9375H13.8541C13.5019 5.9375 13.3392 6.1237 13.2511 6.32953C13.2511 6.32953 12.5469 8.0465 11.5487 9.1618C11.2257 9.4848 11.0788 9.58803 10.9027 9.58803C10.8147 9.58803 10.6874 9.4848 10.6874 9.19157V6.4467C10.6874 6.09457 10.5854 5.9375 10.2916 5.9375H8.11418C7.89441 5.9375 7.76204 6.1009 7.76204 6.25607C7.76204 6.58983 8.26111 6.6671 8.31241 7.60633V9.6463C8.31241 10.0941 8.23198 10.1751 8.05528 10.1751C7.58598 10.1751 6.44344 8.44993 5.76578 6.47647C5.63278 6.09267 5.49978 5.9375 5.14574 5.9375Z" fill="#2997FF"/>
</svg>
