<svg width="19" height="19" viewBox="0 0 19 19" fill="none" xmlns="http://www.w3.org/2000/svg">
<path fill-rule="evenodd" clip-rule="evenodd" d="M4.30104 9.39995C7.07048 8.19335 8.91721 7.39789 9.84123 7.01356C12.4795 5.91622 13.0277 5.7256 13.385 5.71931C13.4636 5.71792 13.6393 5.7374 13.7531 5.82976C13.8492 5.90774 13.8757 6.01309 13.8883 6.08703C13.901 6.16097 13.9167 6.3294 13.9042 6.46101C13.7612 7.96318 13.1426 11.6086 12.8279 13.291C12.6947 14.0029 12.4325 14.2416 12.1787 14.265C11.627 14.3158 11.2081 13.9004 10.6737 13.5501C9.83761 13.0021 9.36525 12.6609 8.55365 12.126C7.6157 11.5079 8.22373 11.1682 8.75827 10.613C8.89816 10.4677 11.3289 8.25681 11.3759 8.05624C11.3818 8.03116 11.3873 7.93766 11.3317 7.88828C11.2762 7.83891 11.1942 7.85579 11.135 7.86922C11.0512 7.88825 9.71546 8.77111 7.12788 10.5178C6.74874 10.7781 6.40533 10.905 6.09764 10.8983C5.75844 10.891 5.10596 10.7066 4.62091 10.5489C4.02597 10.3555 3.55312 10.2532 3.5943 9.92481C3.61574 9.75374 3.85132 9.57879 4.30104 9.39995Z" fill="white"/>
</svg>
