<svg width="19" height="19" viewBox="0 0 19 19" fill="none" xmlns="http://www.w3.org/2000/svg">
<path fill-rule="evenodd" clip-rule="evenodd" d="M5.14526 5.9375H3.76016C3.36432 5.9375 3.28516 6.1237 3.28516 6.32953C3.28516 6.69623 3.75446 8.51643 5.47206 10.9231C6.61649 12.5672 8.22959 13.4583 9.69702 13.4583C10.578 13.4583 10.6869 13.2601 10.6869 12.92V11.6774C10.6869 11.2816 10.7705 11.2024 11.0492 11.2024C11.255 11.2024 11.6065 11.305 12.4292 12.0973C13.3685 13.0372 13.523 13.4583 14.0512 13.4583H15.4369C15.8328 13.4583 16.031 13.2601 15.9164 12.8693C15.7916 12.4805 15.3432 11.9155 14.7479 11.2461C14.4249 10.8648 13.941 10.4538 13.7941 10.248C13.5882 9.98387 13.6471 9.8667 13.7941 9.63173C13.7941 9.63173 15.4819 7.2542 15.658 6.4467C15.7466 6.15347 15.658 5.9375 15.2387 5.9375H13.8536C13.5015 5.9375 13.3387 6.1237 13.2507 6.32953C13.2507 6.32953 12.5464 8.0465 11.5483 9.1618C11.2253 9.4848 11.0783 9.58803 10.9023 9.58803C10.8142 9.58803 10.6869 9.4848 10.6869 9.19157V6.4467C10.6869 6.09457 10.585 5.9375 10.2911 5.9375H8.11369C7.89392 5.9375 7.76156 6.1009 7.76156 6.25607C7.76156 6.58983 8.26062 6.6671 8.31192 7.60633V9.6463C8.31192 10.0941 8.23149 10.1751 8.05479 10.1751C7.58549 10.1751 6.44296 8.44993 5.76529 6.47647C5.63229 6.09267 5.49929 5.9375 5.14526 5.9375Z" fill="white"/>
</svg>
