<svg width="19" height="19" viewBox="0 0 19 19" fill="none" xmlns="http://www.w3.org/2000/svg">
<path fill-rule="evenodd" clip-rule="evenodd" d="M4.30006 9.39971C7.0695 8.19311 8.91623 7.39764 9.84025 7.01331C12.4785 5.91597 13.0267 5.72536 13.384 5.71906C13.4626 5.71768 13.6383 5.73715 13.7521 5.82951C13.8483 5.9075 13.8747 6.01284 13.8874 6.08678C13.9 6.16072 13.9158 6.32916 13.9032 6.46077C13.7603 7.96294 13.1416 11.6083 12.8269 13.2908C12.6938 14.0027 12.4315 14.2414 12.1777 14.2647C11.626 14.3155 11.2071 13.9002 10.6728 13.5499C9.83663 13.0018 9.36428 12.6606 8.55267 12.1258C7.61473 11.5077 8.22276 11.168 8.75729 10.6128C8.89718 10.4675 11.3279 8.25656 11.375 8.056C11.3808 8.03091 11.3863 7.93741 11.3308 7.88804C11.2752 7.83867 11.1932 7.85555 11.1341 7.86898C11.0502 7.88801 9.71448 8.77087 7.1269 10.5176C6.74776 10.7779 6.40435 10.9047 6.09666 10.8981C5.75747 10.8908 5.10498 10.7063 4.61993 10.5486C4.02499 10.3553 3.55215 10.253 3.59332 9.92457C3.61477 9.7535 3.85035 9.57854 4.30006 9.39971Z" fill="#2997FF"/>
</svg>
