<svg width="19" height="19" viewBox="0 0 19 19" fill="none" xmlns="http://www.w3.org/2000/svg">
<path d="M16.3583 14.8604C16.3583 14.8604 15.441 15.7614 15.2162 16.0255C14.85 16.4163 14.4186 16.6008 13.853 16.6008C13.7986 16.6008 13.7406 16.6008 13.6862 16.5972C12.6094 16.5284 11.6088 16.1087 10.8583 15.7505C8.80617 14.7591 7.00425 13.3517 5.50688 11.5679C4.27055 10.0808 3.44392 8.70591 2.89645 7.22969C2.55927 6.32876 2.436 5.62684 2.49039 4.96471C2.52664 4.54138 2.68979 4.19042 2.99072 3.89011L4.22705 2.65631C4.4047 2.48987 4.59323 2.39941 4.77814 2.39941C5.00655 2.39941 5.19145 2.53691 5.30747 2.65269C5.3111 2.65631 5.31472 2.65992 5.31835 2.66354C5.53951 2.86978 5.7498 3.08325 5.97096 3.3112C6.08335 3.42698 6.19937 3.54276 6.31539 3.66216L7.30518 4.64993C7.68949 5.03345 7.68949 5.38804 7.30518 5.77156C7.20003 5.87649 7.09852 5.98142 6.99337 6.08273C6.68882 6.39389 6.92807 6.15514 6.61264 6.43736C6.60539 6.44459 6.59814 6.44821 6.59451 6.45545C6.28271 6.76661 6.34072 7.07054 6.40598 7.27678C6.40961 7.28763 6.41323 7.29848 6.41686 7.30934C6.67427 7.93167 7.03683 8.51781 7.58792 9.21612L7.59155 9.21974C8.59221 10.4499 9.64726 11.4087 10.8111 12.1432C10.9597 12.2373 11.112 12.3133 11.257 12.3857C11.3875 12.4508 11.5108 12.5123 11.616 12.5774C11.6305 12.5847 11.645 12.5955 11.6595 12.6027C11.7827 12.6643 11.8988 12.6932 12.0184 12.6932C12.3193 12.6932 12.5079 12.5051 12.5695 12.4435L13.2802 11.7343C13.4034 11.6113 13.5992 11.463 13.8276 11.463C14.0524 11.463 14.2373 11.6041 14.3497 11.7271C14.3533 11.7307 14.3533 11.7307 14.357 11.7343L16.3547 13.728C16.7281 14.097 16.3583 14.8604 16.3583 14.8604Z" stroke="#2997FF" stroke-width="2" stroke-linecap="round" stroke-linejoin="round"/>
</svg>
