<svg width="19" height="19" viewBox="0 0 19 19" fill="none" xmlns="http://www.w3.org/2000/svg">
<g clip-path="url(#clip0_19_35)">
<path fill-rule="evenodd" clip-rule="evenodd" d="M10.6023 9.35086C10.6944 9.42984 10.6944 9.57241 10.6023 9.6514L8.13686 11.7646C7.88789 11.978 7.85905 12.3528 8.07246 12.6018C8.28587 12.8508 8.6607 12.8796 8.90968 12.6662L11.3751 10.553C12.0202 10.0001 12.0202 9.00215 11.3751 8.44924L8.90968 6.33603C8.6607 6.12263 8.28587 6.15146 8.07246 6.40043C7.85905 6.64941 7.88789 7.02424 8.13686 7.23765L10.6023 9.35086Z" fill="#2997FF"/>
<path fill-rule="evenodd" clip-rule="evenodd" d="M9.49967 16.8229C5.45534 16.8229 2.17676 13.5443 2.17676 9.50001C2.17676 5.45567 5.45534 2.17709 9.49967 2.17709C13.544 2.17709 16.8226 5.45567 16.8226 9.50001C16.8226 13.5443 13.544 16.8229 9.49967 16.8229ZM0.989258 9.50001C0.989258 14.2002 4.7995 18.0104 9.49967 18.0104C14.1998 18.0104 18.0101 14.2002 18.0101 9.50001C18.0101 4.79983 14.1998 0.98959 9.49967 0.98959C4.7995 0.98959 0.989258 4.79983 0.989258 9.50001Z" fill="#2997FF"/>
</g>
<defs>
<clipPath id="clip0_19_35">
<rect width="19" height="19" fill="white" transform="matrix(1 0 0 -1 0 19)"/>
</clipPath>
</defs>
</svg>
