<svg width="230" height="32" viewBox="0 0 230 32" fill="none" xmlns="http://www.w3.org/2000/svg">
<path d="M48.8449 9.81382C48.8449 10.0458 48.8196 10.2849 48.769 10.5314C48.7183 10.773 48.6171 11.0484 48.4652 11.3576C48.3133 11.6621 48.1158 11.952 47.8728 12.2274C47.6348 12.498 47.3057 12.7686 46.8855 13.0392C46.4703 13.3049 45.9893 13.5345 45.4425 13.7277C44.9008 13.921 44.2299 14.0757 43.4299 14.1916C42.63 14.3124 41.749 14.3728 40.787 14.3728H40.1794C39.1972 14.3728 38.2985 14.3052 37.4833 14.1699C36.6732 14.0346 35.9897 13.8582 35.4328 13.6408C34.8809 13.4233 34.3923 13.1576 33.967 12.8435C33.5468 12.5294 33.2151 12.2129 32.9721 11.894C32.7291 11.5703 32.5316 11.2175 32.3797 10.8358C32.2278 10.4541 32.1266 10.1062 32.0759 9.79207C32.0253 9.47799 32 9.15425 32 8.82084V8.38596C32 8.12986 32.0127 7.88343 32.038 7.64666C32.0684 7.40506 32.1215 7.1393 32.1975 6.84938C32.2785 6.55946 32.3823 6.28645 32.5088 6.03035C32.6405 5.77425 32.8152 5.51091 33.0329 5.24032C33.2556 4.96972 33.5113 4.72329 33.7999 4.50102C34.0885 4.27875 34.4404 4.06855 34.8556 3.87044C35.2708 3.6675 35.729 3.49838 36.2302 3.36308C36.7365 3.22295 37.3264 3.11423 37.9998 3.03692C38.6732 2.95478 39.3997 2.9137 40.1794 2.9137H40.787C41.7591 2.9137 42.6452 2.9741 43.4451 3.0949C44.2502 3.21087 44.9236 3.36308 45.4653 3.55153C46.0121 3.73998 46.4931 3.96708 46.9083 4.23284C47.3235 4.49377 47.65 4.75712 47.888 5.02288C48.126 5.28864 48.3184 5.57373 48.4652 5.87814C48.6171 6.18256 48.7183 6.45074 48.769 6.68267C48.8196 6.91461 48.8449 7.14655 48.8449 7.37848V7.57418H44.2578C44.2375 7.50653 44.2173 7.44613 44.197 7.39298C44.1768 7.33499 44.1287 7.24319 44.0527 7.11755C43.9768 6.99192 43.8856 6.88079 43.7793 6.78414C43.673 6.6875 43.5211 6.5812 43.3236 6.46523C43.1262 6.34443 42.9008 6.24538 42.6477 6.16806C42.3996 6.08592 42.0832 6.01827 41.6984 5.96512C41.3186 5.90713 40.9009 5.87814 40.4452 5.87814C39.9997 5.87814 39.5921 5.90472 39.2225 5.95787C38.858 6.01102 38.5441 6.0835 38.2808 6.17531C38.0175 6.26712 37.7846 6.38067 37.5821 6.51597C37.3795 6.64643 37.215 6.78414 37.0884 6.92911C36.9669 7.07407 36.8656 7.23594 36.7846 7.41472C36.7036 7.59351 36.6479 7.76746 36.6175 7.93658C36.5872 8.10087 36.572 8.27724 36.572 8.46568V8.63964C36.572 8.85225 36.5973 9.06002 36.6479 9.26297C36.6986 9.46108 36.777 9.66644 36.8834 9.87905C36.9947 10.0917 37.1492 10.2874 37.3466 10.4661C37.5492 10.6401 37.7871 10.7971 38.0605 10.9373C38.339 11.0774 38.6833 11.1885 39.0934 11.2707C39.5035 11.348 39.9592 11.3866 40.4604 11.3866C40.9262 11.3866 41.3515 11.3576 41.7363 11.2997C42.1262 11.2368 42.4452 11.1619 42.6933 11.075C42.9464 10.988 43.1717 10.8793 43.3692 10.7488C43.5717 10.6183 43.7236 10.5024 43.8249 10.4009C43.9261 10.2946 44.0122 10.1738 44.0831 10.0385C44.159 9.90321 44.2046 9.80898 44.2198 9.75583C44.24 9.70268 44.2578 9.64228 44.2729 9.57463H48.8449V9.81382Z" fill="white"/>
<path d="M60.8141 14.1626L59.9103 12.3796H53.303L52.4144 14.1626H47.9336L53.6599 3.11665H59.5989L65.6519 14.1626H60.8141ZM54.6548 9.61812H58.4977L56.5535 5.82016L54.6548 9.61812Z" fill="white"/>
<path d="M77.7274 14.1626V7.23352L70.4669 14.1626H66.0468V3.11665H70.4669V10.0675L77.7274 3.11665H82.1474V14.1626H77.7274ZM77.9324 0.0289921C77.9324 0.207777 77.902 0.398641 77.8413 0.601586C77.7805 0.799698 77.6666 1.01714 77.4995 1.25391C77.3375 1.49068 77.1324 1.70328 76.8844 1.89173C76.6363 2.08018 76.3021 2.23722 75.8819 2.36285C75.4616 2.48849 74.9882 2.5513 74.4617 2.5513H73.8389C73.2668 2.5513 72.7605 2.48849 72.32 2.36285C71.8795 2.23239 71.5377 2.07535 71.2947 1.89173C71.0517 1.70812 70.8517 1.49551 70.6947 1.25391C70.5428 1.01231 70.4416 0.794866 70.3909 0.601586C70.3454 0.403473 70.3226 0.212609 70.3226 0.0289921V0H73.1706C73.1756 0.0676482 73.1883 0.13288 73.2085 0.195696C73.2339 0.258513 73.2769 0.335825 73.3377 0.427633C73.4035 0.519441 73.5073 0.594337 73.649 0.652322C73.7908 0.705474 73.963 0.73205 74.1655 0.73205C74.3629 0.73205 74.53 0.703058 74.6667 0.645074C74.8085 0.587089 74.9097 0.514609 74.9705 0.427633C75.0313 0.340657 75.0718 0.263345 75.092 0.195696C75.1173 0.123216 75.13 0.0579841 75.13 0H77.9324V0.0289921Z" fill="white"/>
<path d="M83.1879 6.13182V3.11665H97.595V6.13182H92.5977V14.1626H88.1776V6.13182H83.1879Z" fill="white"/>
<path d="M119.824 9.81382C119.824 10.0458 119.799 10.2849 119.749 10.5314C119.698 10.773 119.597 11.0484 119.445 11.3576C119.293 11.6621 119.095 11.952 118.852 12.2274C118.614 12.498 118.285 12.7686 117.865 13.0392C117.45 13.3049 116.969 13.5345 116.422 13.7277C115.88 13.921 115.209 14.0757 114.41 14.1916C113.61 14.3124 112.729 14.3728 111.767 14.3728H111.159C110.177 14.3728 109.278 14.3052 108.463 14.1699C107.653 14.0346 106.969 13.8582 106.412 13.6408C105.86 13.4233 105.372 13.1576 104.947 12.8435C104.526 12.5294 104.195 12.2129 103.952 11.894C103.709 11.5703 103.511 11.2175 103.359 10.8358C103.207 10.4541 103.106 10.1062 103.056 9.79207C103.005 9.47799 102.98 9.15425 102.98 8.82084V8.38596C102.98 8.12986 102.992 7.88343 103.018 7.64666C103.048 7.40506 103.101 7.1393 103.177 6.84938C103.258 6.55946 103.362 6.28645 103.488 6.03035C103.62 5.77425 103.795 5.51091 104.012 5.24032C104.235 4.96972 104.491 4.72329 104.779 4.50102C105.068 4.27875 105.42 4.06855 105.835 3.87044C106.25 3.6675 106.709 3.49838 107.21 3.36308C107.716 3.22295 108.306 3.11423 108.979 3.03692C109.653 2.95478 110.379 2.9137 111.159 2.9137H111.767C112.739 2.9137 113.625 2.9741 114.425 3.0949C115.23 3.21087 115.903 3.36308 116.445 3.55153C116.992 3.73998 117.473 3.96708 117.888 4.23284C118.303 4.49377 118.63 4.75712 118.868 5.02288C119.106 5.28864 119.298 5.57373 119.445 5.87814C119.597 6.18256 119.698 6.45074 119.749 6.68267C119.799 6.91461 119.824 7.14655 119.824 7.37848V7.57418H115.237C115.217 7.50653 115.197 7.44613 115.177 7.39298C115.156 7.33499 115.108 7.24319 115.032 7.11755C114.956 6.99192 114.865 6.88079 114.759 6.78414C114.653 6.6875 114.501 6.5812 114.303 6.46523C114.106 6.34443 113.88 6.24538 113.627 6.16806C113.379 6.08592 113.063 6.01827 112.678 5.96512C112.298 5.90713 111.88 5.87814 111.425 5.87814C110.979 5.87814 110.572 5.90472 110.202 5.95787C109.838 6.01102 109.524 6.0835 109.26 6.17531C108.997 6.26712 108.764 6.38067 108.562 6.51597C108.359 6.64643 108.195 6.78414 108.068 6.92911C107.946 7.07407 107.845 7.23594 107.764 7.41472C107.683 7.59351 107.627 7.76746 107.597 7.93658C107.567 8.10087 107.552 8.27724 107.552 8.46568V8.63964C107.552 8.85225 107.577 9.06002 107.627 9.26297C107.678 9.46108 107.757 9.66644 107.863 9.87905C107.974 10.0917 108.129 10.2874 108.326 10.4661C108.529 10.6401 108.767 10.7971 109.04 10.9373C109.319 11.0774 109.663 11.1885 110.073 11.2707C110.483 11.348 110.939 11.3866 111.44 11.3866C111.906 11.3866 112.331 11.3576 112.716 11.2997C113.106 11.2368 113.425 11.1619 113.673 11.075C113.926 10.988 114.151 10.8793 114.349 10.7488C114.551 10.6183 114.703 10.5024 114.804 10.4009C114.906 10.2946 114.992 10.1738 115.063 10.0385C115.139 9.90321 115.184 9.80898 115.199 9.75583C115.22 9.70268 115.237 9.64228 115.253 9.57463H119.824V9.81382Z" fill="white"/>
<path d="M121.586 11.2199C121.905 10.6111 122.118 9.73409 122.224 8.5889C122.336 7.44371 122.391 5.61963 122.391 3.11665H135.849V11.2199H137.717V16.0906H133.563V14.1626H124.214V16.0906H120.06V11.2199H121.586ZM125.68 11.2199H131.429V6.05934H126.379C126.363 8.59615 126.131 10.3163 125.68 11.2199Z" fill="white"/>
<path d="M138.485 3.11665H151.289V5.82016H142.844V7.19728H151.114V9.8863H142.844V11.4011H151.411V14.1626H138.485V3.11665Z" fill="white"/>
<path d="M163.084 14.1626V5.95062H158.291C158.286 7.39539 158.246 8.56474 158.17 9.45866C158.099 10.3478 158 11.0242 157.874 11.4881C157.752 11.9471 157.58 12.3482 157.357 12.6913C157.028 13.2083 156.583 13.5828 156.021 13.8147C155.464 14.0467 154.669 14.1626 153.636 14.1626H152.208V11.017H152.443C152.773 11.017 153.031 10.9904 153.218 10.9373C153.405 10.8793 153.562 10.773 153.689 10.6183C153.841 10.4347 153.955 10.1279 154.031 9.69785C154.112 9.26297 154.173 8.53575 154.213 7.51619C154.254 6.49181 154.274 5.02529 154.274 3.11665H167.496V14.1626H163.084Z" fill="white"/>
<path d="M180.779 14.1626L179.875 12.3796H173.268L172.379 14.1626H167.899L173.625 3.11665H179.564L185.617 14.1626H180.779ZM174.62 9.61812H178.463L176.519 5.82016L174.62 9.61812Z" fill="white"/>
<path d="M197.662 14.1626V9.95878H190.432V14.1626H186.012V3.11665H190.432V7.02333H197.662V3.11665H202.067V14.1626H197.662Z" fill="white"/>
<path d="M32.3873 31.7898V20.7438H43.278C43.9312 20.7438 44.5084 20.7921 45.0096 20.8888C45.5159 20.9806 45.926 21.1038 46.24 21.2584C46.5589 21.4131 46.8172 21.6015 47.0146 21.8238C47.2171 22.0412 47.3564 22.2659 47.4323 22.4978C47.5133 22.7298 47.5538 22.981 47.5538 23.2516V23.4183C47.5538 23.7421 47.488 24.0368 47.3564 24.3026C47.2247 24.5684 47.0526 24.7858 46.8399 24.9549C46.6273 25.124 46.4146 25.2593 46.202 25.3608C45.9893 25.4623 45.7767 25.5372 45.564 25.5855C45.7969 25.6387 46.0197 25.7039 46.2324 25.7812C46.4501 25.8585 46.6855 25.9745 46.9387 26.1291C47.1918 26.2789 47.407 26.4529 47.5842 26.651C47.7665 26.8442 47.9184 27.0955 48.0399 27.4048C48.1614 27.7092 48.2222 28.0474 48.2222 28.4195V28.6007C48.2222 30.7268 46.5944 31.7898 43.3388 31.7898H32.3873ZM41.9414 23.2516H36.8074V24.81H41.9414C42.7262 24.81 43.1186 24.5539 43.1186 24.0417V24.0127C43.1186 23.7711 43.03 23.5851 42.8527 23.4546C42.6755 23.3193 42.3718 23.2516 41.9414 23.2516ZM42.2148 27.2888H36.8074V29.195H42.2148C43.1312 29.195 43.5894 28.8785 43.5894 28.2455V28.1948C43.5894 27.5908 43.1312 27.2888 42.2148 27.2888Z" fill="white"/>
<path d="M58.2091 28.0063V31.7898H53.789V20.7438H64.3076C67.5531 20.7438 69.1758 21.6885 69.1758 23.5778V23.7445C69.1758 24.0489 69.1201 24.3316 69.0087 24.5925C68.9024 24.8535 68.7682 25.0709 68.6062 25.2448C68.4442 25.4188 68.2518 25.5758 68.029 25.716C67.8113 25.8513 67.6062 25.9552 67.4138 26.0276C67.2265 26.1001 67.0341 26.1605 66.8366 26.2088C67.5708 26.3683 68.1505 26.6727 68.5758 27.1221C69.0062 27.5715 69.2214 28.1416 69.2214 28.8326V30.4707C69.2214 31.0408 69.2922 31.4564 69.434 31.7173V31.7898H64.9304C64.8342 31.669 64.7861 31.4757 64.7861 31.21V29.9198C64.7861 29.2627 64.6063 28.7795 64.2469 28.4702C63.8874 28.161 63.2849 28.0063 62.4393 28.0063H58.2091ZM58.2091 23.4328V25.3318H63.2747C63.7355 25.3318 64.0747 25.2448 64.2924 25.0709C64.5101 24.8969 64.619 24.6674 64.619 24.3823V24.3678C64.619 24.0876 64.5101 23.8629 64.2924 23.6938C64.0798 23.5198 63.7406 23.4328 63.2747 23.4328H58.2091Z" fill="white"/>
<path d="M82.3829 31.7898L81.4791 30.0068H74.8718L73.9832 31.7898H69.5024L75.2287 20.7438H81.1677L87.2207 31.7898H82.3829ZM76.2236 27.2453H80.0665L78.1223 23.4473L76.2236 27.2453Z" fill="white"/>
<path d="M87.6156 31.7898V20.7438H95.833C96.7646 20.7438 97.6177 20.797 98.3924 20.9033C99.1721 21.0048 99.843 21.1449 100.405 21.3237C100.972 21.5025 101.476 21.7223 101.916 21.9832C102.357 22.2442 102.716 22.522 102.995 22.8168C103.278 23.1115 103.509 23.4377 103.686 23.7952C103.868 24.1528 103.995 24.508 104.066 24.8607C104.142 25.2086 104.18 25.5783 104.18 25.9696V26.419C104.18 26.8008 104.147 27.1656 104.081 27.5135C104.015 27.8565 103.896 28.2141 103.724 28.5862C103.557 28.9534 103.339 29.2892 103.071 29.5937C102.802 29.8981 102.45 30.1904 102.015 30.4707C101.58 30.7461 101.078 30.9804 100.511 31.1737C99.9493 31.3622 99.2708 31.512 98.4759 31.6231C97.681 31.7342 96.8051 31.7898 95.8482 31.7898H87.6156ZM92.0357 23.643V28.8689H95.3166C95.8482 28.8689 96.3292 28.8374 96.7595 28.7746C97.195 28.7118 97.557 28.6297 97.8456 28.5282C98.1392 28.4267 98.3949 28.3011 98.6126 28.1513C98.8303 28.0015 99 27.8541 99.1215 27.7092C99.243 27.5594 99.3392 27.3951 99.4101 27.2163C99.486 27.0327 99.5341 26.8708 99.5544 26.7307C99.5797 26.5906 99.5923 26.4408 99.5923 26.2813V26.1943C99.5923 24.4935 98.1671 23.643 95.3166 23.643H92.0357Z" fill="white"/>
<path d="M116.027 31.7898L115.123 30.0068H108.516L107.627 31.7898H103.147L108.873 20.7438H114.812L120.865 31.7898H116.027ZM109.868 27.2453H113.711L111.767 23.4473L109.868 27.2453Z" fill="white"/>
<path d="M125.68 28.0063V31.7898H121.26V20.7438H131.778C135.024 20.7438 136.647 21.6885 136.647 23.5778V23.7445C136.647 24.0489 136.591 24.3316 136.48 24.5925C136.373 24.8535 136.239 25.0709 136.077 25.2448C135.915 25.4188 135.723 25.5758 135.5 25.716C135.282 25.8513 135.077 25.9552 134.885 26.0276C134.697 26.1001 134.505 26.1605 134.307 26.2088C135.042 26.3683 135.621 26.6727 136.047 27.1221C136.477 27.5715 136.692 28.1416 136.692 28.8326V30.4707C136.692 31.0408 136.763 31.4564 136.905 31.7173V31.7898H132.401C132.305 31.669 132.257 31.4757 132.257 31.21V29.9198C132.257 29.2627 132.077 28.7795 131.718 28.4702C131.358 28.161 130.756 28.0063 129.91 28.0063H125.68ZM125.68 23.4328V25.3318H130.746C131.206 25.3318 131.546 25.2448 131.763 25.0709C131.981 24.8969 132.09 24.6674 132.09 24.3823V24.3678C132.09 24.0876 131.981 23.8629 131.763 23.6938C131.551 23.5198 131.211 23.4328 130.746 23.4328H125.68Z" fill="white"/>
<path d="M142.54 31.7898V20.7438H150.757C151.689 20.7438 152.542 20.797 153.317 20.9033C154.097 21.0048 154.767 21.1449 155.329 21.3237C155.897 21.5025 156.4 21.7223 156.841 21.9832C157.281 22.2442 157.641 22.522 157.919 22.8168C158.203 23.1115 158.433 23.4377 158.61 23.7952C158.793 24.1528 158.919 24.508 158.99 24.8607C159.066 25.2086 159.104 25.5783 159.104 25.9696V26.419C159.104 26.8008 159.071 27.1656 159.005 27.5135C158.939 27.8565 158.82 28.2141 158.648 28.5862C158.481 28.9534 158.264 29.2892 157.995 29.5937C157.727 29.8981 157.375 30.1904 156.94 30.4707C156.504 30.7461 156.003 30.9804 155.436 31.1737C154.874 31.3622 154.195 31.512 153.4 31.6231C152.605 31.7342 151.73 31.7898 150.773 31.7898H142.54ZM146.96 23.643V28.8689H150.241C150.773 28.8689 151.254 28.8374 151.684 28.7746C152.119 28.7118 152.481 28.6297 152.77 28.5282C153.064 28.4267 153.319 28.3011 153.537 28.1513C153.755 28.0015 153.924 27.8541 154.046 27.7092C154.167 27.5594 154.264 27.3951 154.335 27.2163C154.41 27.0327 154.459 26.8708 154.479 26.7307C154.504 26.5906 154.517 26.4408 154.517 26.2813V26.1943C154.517 24.4935 153.092 23.643 150.241 23.643H146.96Z" fill="white"/>
<path d="M160.069 20.7438H172.873V23.4473H164.428V24.8245H172.698V27.5135H164.428V29.0283H172.995V31.7898H160.069V20.7438Z" fill="white"/>
<path d="M189.3 28.2455C189.3 28.5306 189.275 28.7964 189.224 29.0428C189.174 29.2892 189.078 29.5429 188.936 29.8039C188.799 30.0648 188.619 30.3015 188.397 30.5142C188.174 30.7219 187.875 30.92 187.5 31.1085C187.131 31.2969 186.7 31.4564 186.209 31.5869C185.723 31.7125 185.133 31.8116 184.44 31.884C183.746 31.9613 182.976 32 182.131 32H180.711C176.007 32 173.655 30.6929 173.655 28.0788V27.9339H178.508C178.518 28.0788 178.541 28.2117 178.577 28.3325C178.617 28.4485 178.698 28.5838 178.82 28.7384C178.941 28.8882 179.101 29.0162 179.298 29.1225C179.496 29.224 179.774 29.311 180.134 29.3835C180.493 29.4559 180.913 29.4922 181.394 29.4922H181.539C182.02 29.4922 182.435 29.4729 182.784 29.4342C183.133 29.3955 183.407 29.3448 183.604 29.282C183.807 29.2192 183.966 29.1419 184.083 29.0501C184.204 28.9534 184.283 28.8592 184.318 28.7674C184.354 28.6756 184.371 28.5693 184.371 28.4485V28.434C184.371 28.2794 184.341 28.1513 184.28 28.0498C184.225 27.9484 184.108 27.8517 183.931 27.7599C183.754 27.6633 183.475 27.5908 183.095 27.5425C182.721 27.4893 182.237 27.4555 181.645 27.441L179.503 27.383C178.632 27.3589 177.863 27.2815 177.194 27.1511C176.526 27.0206 175.982 26.8563 175.562 26.6582C175.141 26.4553 174.797 26.2137 174.529 25.9334C174.265 25.6483 174.081 25.356 173.974 25.0564C173.873 24.752 173.822 24.4186 173.822 24.0562V23.9257C173.822 23.544 173.878 23.1961 173.989 22.882C174.106 22.5679 174.316 22.2635 174.62 21.9687C174.924 21.6692 175.319 21.4203 175.805 21.2222C176.296 21.0193 176.936 20.8574 177.726 20.7366C178.521 20.6158 179.44 20.5554 180.483 20.5554H181.865C186.554 20.5554 188.898 21.7175 188.898 24.0417V24.1576H184.09C184.08 24.0562 184.057 23.9644 184.022 23.8822C183.992 23.7952 183.918 23.6938 183.802 23.5778C183.685 23.4618 183.533 23.3652 183.346 23.2879C183.159 23.2057 182.888 23.1357 182.533 23.0777C182.179 23.0197 181.764 22.9907 181.288 22.9907H181.136C180.685 22.9907 180.301 23.0076 179.982 23.0414C179.663 23.0704 179.415 23.1091 179.237 23.1574C179.06 23.2009 178.921 23.2613 178.82 23.3386C178.718 23.4111 178.653 23.4836 178.622 23.5561C178.597 23.6237 178.584 23.7058 178.584 23.8025V23.817C178.584 23.9426 178.615 24.0489 178.675 24.1359C178.736 24.2229 178.85 24.3099 179.017 24.3968C179.189 24.479 179.448 24.5442 179.792 24.5925C180.141 24.636 180.579 24.6602 181.106 24.665L183.187 24.7085C185.369 24.7568 186.933 25.0443 187.88 25.571C188.827 26.0977 189.3 26.9191 189.3 28.0353V28.2455Z" fill="white"/>
<path d="M194.609 20.7438V31.7898H190.204V20.7438H194.609Z" fill="white"/>
<path d="M209.289 30.2605C209.173 30.3861 209.041 30.5093 208.894 30.6301C208.748 30.7509 208.515 30.9007 208.196 31.0795C207.877 31.2535 207.527 31.4032 207.148 31.5289C206.773 31.6545 206.29 31.7632 205.697 31.855C205.105 31.9517 204.467 32 203.783 32H203.426C202.55 32 201.743 31.9372 201.004 31.8116C200.264 31.6859 199.632 31.5192 199.105 31.3114C198.578 31.0988 198.108 30.8427 197.692 30.5431C197.282 30.2436 196.948 29.9319 196.69 29.6082C196.437 29.2796 196.227 28.9293 196.06 28.5572C195.898 28.1803 195.784 27.8203 195.718 27.4772C195.652 27.1342 195.619 26.7863 195.619 26.4335V26.0131C195.619 25.6507 195.649 25.3004 195.71 24.9622C195.776 24.6191 195.89 24.2615 196.052 23.8895C196.219 23.5174 196.432 23.1743 196.69 22.8602C196.953 22.5462 197.3 22.2442 197.73 21.9542C198.161 21.6595 198.652 21.4106 199.204 21.2077C199.761 21.0048 200.432 20.8429 201.216 20.7221C202.001 20.6013 202.867 20.5409 203.814 20.5409H204.421C205.398 20.5409 206.29 20.594 207.095 20.7003C207.9 20.8066 208.576 20.9444 209.122 21.1135C209.669 21.2826 210.15 21.4904 210.565 21.7368C210.986 21.9784 211.315 22.2224 211.553 22.4689C211.796 22.7153 211.993 22.9859 212.145 23.2806C212.297 23.5754 212.398 23.8387 212.449 24.0707C212.504 24.3026 212.535 24.5442 212.54 24.7955V24.81H207.938C207.917 24.7471 207.895 24.6916 207.869 24.6433C207.849 24.5949 207.798 24.52 207.717 24.4186C207.641 24.3171 207.553 24.2277 207.452 24.1504C207.35 24.0683 207.201 23.9789 207.003 23.8822C206.806 23.7856 206.586 23.7059 206.343 23.643C206.1 23.5802 205.791 23.5271 205.416 23.4836C205.041 23.4401 204.631 23.4183 204.186 23.4183C203.583 23.4183 203.047 23.4667 202.576 23.5633C202.11 23.6599 201.728 23.7928 201.429 23.9619C201.135 24.1262 200.892 24.3268 200.7 24.5635C200.513 24.8003 200.381 25.0492 200.305 25.3101C200.229 25.5662 200.191 25.8464 200.191 26.1508V26.3103C200.191 26.6775 200.264 27.023 200.411 27.3468C200.558 27.6705 200.783 27.9677 201.087 28.2383C201.391 28.504 201.804 28.7142 202.325 28.8689C202.852 29.0235 203.462 29.1008 204.155 29.1008C204.722 29.1008 205.239 29.0646 205.705 28.9921C206.176 28.9196 206.555 28.8302 206.844 28.7239C207.133 28.6128 207.376 28.492 207.573 28.3615C207.776 28.231 207.915 28.1126 207.991 28.0063C208.072 27.8952 208.112 27.801 208.112 27.7237H204.049V25.571H212.616V31.7898H209.836C209.806 31.6014 209.732 31.3501 209.616 31.036C209.505 30.7171 209.396 30.4586 209.289 30.2605Z" fill="white"/>
<path d="M213.945 20.7438H218.889L225.61 27.0279V20.7438H230V31.7898H225.58L218.335 25.0926V31.7898H213.945V20.7438Z" fill="white"/>
<path d="M8.93858 15.3544C8.92316 13.0839 7.97646 10.9107 6.30349 9.30523C4.63051 7.69976 2.3659 6.79127 0 6.77647L0.0274611 0C2.124 0.00220773 4.19947 0.401483 6.13489 1.17494C8.07032 1.94839 9.82764 3.08082 11.3061 4.50729C12.7924 5.92624 13.9723 7.61267 14.7783 9.46997C15.5843 11.3273 16.0004 13.3189 16.0029 15.3308L8.93858 15.3544Z" fill="white"/>
<path d="M15.9019 32H8.84051L1.87716 15.3412H8.93858L15.9019 32Z" fill="white"/>
</svg>
