<svg width="28" height="28" viewBox="0 0 28 28" fill="none" xmlns="http://www.w3.org/2000/svg">
<path d="M3.59922 24.4C4.05836 23.8858 7.14301 21.4632 8.67622 20.2689C9.23463 19.834 9.91958 19.6 10.6274 19.6C12.3389 19.6 15.6371 19.6 17.3569 19.6C18.073 19.6 18.7647 19.8439 19.3413 20.2687C21.321 21.7271 23.1769 22.8138 25.1992 24.4M5.99922 26.7997H21.9992C24.6502 26.7997 26.7992 24.6507 26.7992 21.9997V5.99971C26.7992 3.34874 24.6502 1.19971 21.9992 1.19971H5.99922C3.34825 1.19971 1.19922 3.34874 1.19922 5.99971V21.9997C1.19922 24.6507 3.34825 26.7997 5.99922 26.7997ZM18.5839 10.3624C18.5839 7.92041 16.5224 5.92515 13.9992 5.92515C11.476 5.92515 9.41448 7.92041 9.41448 10.3624C9.41448 12.8044 11.476 14.7997 13.9992 14.7997C16.5224 14.7997 18.5839 12.8044 18.5839 10.3624Z" stroke="black" stroke-width="2"/>
</svg>
